<?xml version="1.0" encoding="utf-8"?>
<!-- Generator: Adobe Illustrator 16.0.0, SVG Export Plug-In . SVG Version: 6.00 Build 0)  -->
<!DOCTYPE svg PUBLIC "-//W3C//DTD SVG 1.1//EN" "http://www.w3.org/Graphics/SVG/1.1/DTD/svg11.dtd">
<svg version="1.1" xmlns="http://www.w3.org/2000/svg" xmlns:xlink="http://www.w3.org/1999/xlink" x="0px" y="0px" width="1122px"
	 height="1122px" viewBox="0 0 1122 1122" style="enable-background:new 0 0 1122 1122;" xml:space="preserve">
<style type="text/css">
<![CDATA[
	.st0{fill:#52212B;}
]]>
</style>
<g id="BG">
</g>
<g id="Object">
	<g>
		<g>
			<g>
				<path class="st0" d="M818.4,1121.1H276c-84.9,0-153.7-58.2-153.7-130.1l0,0h849.8l0,0C972.1,1062.8,903.3,1121.1,818.4,1121.1z"
					/>
			</g>
		</g>
		<path class="st0" d="M111.5,556.4c0,276,195.1,499.7,435.7,499.7c240.6,0,435.7-223.7,435.7-499.7H111.5z"/>
		<g>
			<path class="st0" d="M854.2,943.2c-26,0-50.2-4.2-69.8-13l26.1-57.8c33,14.9,106.3,8,158.5-25.7c23.4-15.1,51.4-41.7,51.4-82.3
				c0-48.5-39.5-88-88-88c-8.6,0-17.1,1.2-25.3,3.7L889,619.2c14.1-4.2,28.7-6.3,43.4-6.3c83.5,0,151.4,67.9,151.4,151.4
				c0,53.9-28.6,102.1-80.4,135.6C960.2,927.8,903.8,943.2,854.2,943.2z"/>
		</g>
		<g>
			<g>
				<path class="st0" d="M502,144.8c-12,23.5-30.7,42.9-45,65.2c-33.1,51.5-40.7,118.9-18.4,175.8c22.4,57,74.7,101.5,134.8,113
					c-32.5-14.5-58.5-42.8-70.2-76.4c-11.7-33.6-8.9-71.9,7.6-103.5c15.8-30.2,42.6-53.1,61.4-81.5c17.6-26.6,27.9-57.8,30.7-89.6
					c3.1-36.3-5.3-76.2-33-99.8C545.7,27.5,513,20.9,488.2,0.9C515.1,44.5,526.7,96.3,502,144.8z"/>
			</g>
			<g>
				<path class="st0" d="M605.9,465.4c-15.1-14.5-31.1-30.4-34.7-51c-3.6-20.5,5.9-40.8,16.1-59c10.1-18,21-35.5,32.9-52.4
					c16.5-23.6,35.7-50.3,29.4-78.3c22.4,29.3,25.3,72.2,6.9,104.1c-6,10.5-14,19.6-20.6,29.7c-14.5,22.1-22.5,49.1-19.3,75.4
					c2.9,24.4,15.5,44,33.3,60.1C632.8,494.8,617.3,476.3,605.9,465.4z"/>
			</g>
		</g>
	</g>
</g>
</svg>
